<svg xmlns="http://www.w3.org/2000/svg" width="278.625" height="966.06" viewBox="0 0 278.625 966.06">
  <defs>
    <style>
      .cls-1 {
        fill: #f4fafe;
        fill-rule: evenodd;
      }
    </style>
  </defs>
  <path id="Bg._Shape" data-name="Bg. Shape" class="cls-1" d="M193.534,1389.79a107.659,107.659,0,0,1-64.127-130.75c12.613-31.27,14.112-64.31,1.712-94.33-20.011-48.46-71.2-76.95-131.119-79.42v966.05c17.6-13.92,30.571-26.62,40.339-35.22,17.217-15.16,31.873-32.94,42.274-52.5,25.3-47.59,14.233-100.31-21.019-139.55l0.017-.01c-18.686-21.12-24.229-53.31-11.644-86.61,14.133-37.39,47.234-65.89,83.151-75.52a206,206,0,0,0,33.249-10.55c85.8-35.43,132.818-120.93,103.543-191.82C256.14,1426.21,228.2,1402.19,193.534,1389.79Z" transform="translate(0 -1085.28)"/>
</svg>
