<svg xmlns="http://www.w3.org/2000/svg" width="417.16" height="666.69" viewBox="0 0 417.16 666.69">
  <defs>
    <style>
      .cls-1 {
        fill: #f4fafe;
        fill-rule: evenodd;
      }
    </style>
  </defs>
  <path id="Bg._Shape" data-name="Bg. Shape" class="cls-1" d="M1920,3552.58a70.876,70.876,0,0,1-25.81,7.94c-25.54,2.84-49.44-7.72-62.41-25.38a103.618,103.618,0,0,0-13.01-15.86c-38.56-38.56-99.88-40.45-137.19-3.14a93.521,93.521,0,0,0-27.3,63.82c-1,17.98-9.13,36.72-24.03,51.62a81.9,81.9,0,0,1-42.78,22.97c-21.52,1.92-41.91,10.69-57.71,26.49-38.66,38.66-35.23,104.78,7.66,147.67a118.711,118.711,0,0,0,48.67,29.61c27.38,9.85,56.08,28.09,81.59,53.59,38.85,38.85,60.85,85.1,62.01,122.83h0.01c1.56,29.32,14.04,58.89,37.21,82.07,31.64,31.64,75.2,43.35,113.77,34.52,7.91-1.22,26.16-2.91,39.32,4.61V3552.58Z" transform="translate(-1502.84 -3489.25)"/>
</svg>
