<svg xmlns="http://www.w3.org/2000/svg" width="336.19" height="858.81" viewBox="0 0 336.19 858.81">
  <defs>
    <style>
      .cls-1 {
        fill: #f4fafe;
        fill-rule: evenodd;
      }
    </style>
  </defs>
  <path id="Bg._Shape" data-name="Bg. Shape" class="cls-1" d="M1920,1438.12a132.714,132.714,0,0,0-68.6,34.75,135.871,135.871,0,0,0-41.82,91.81c-2.07,26.1-14.51,53.04-36.67,74.19-18.54,17.69-40.82,28.41-62.94,31.93-31.33,2.06-61.26,14.11-84.76,36.54-57.48,54.87-54.74,151.05,6.14,214.83a172.265,172.265,0,0,0,69.72,44.67c39.46,15.25,80.54,42.71,116.74,80.64,55.13,57.77,85.53,125.71,85.95,180.57l0.01,0.01a178.849,178.849,0,0,0,16.23,68.89V1438.12Z" transform="translate(-1583.81 -1438.13)"/>
</svg>
