<svg xmlns="http://www.w3.org/2000/svg" width="924.813" height="903.38" viewBox="0 0 924.813 903.38">
  <defs>
    <style>
      .cls-1 {
        fill: #f4fafe;
        fill-rule: evenodd;
      }
    </style>
  </defs>
  <path id="Bg._Shape" data-name="Bg. Shape" class="cls-1" d="M0,3320.19c89.28-8.15,113.665-88.7,318.28-16.82,129.666,45.54,208.667,6.02,244-6.97a158.652,158.652,0,0,0,50.464-29.63c35.475-31.41,43.921-79.85,28.889-125.35h0.02c-7.867-24.39-1.748-53.55,19.034-77.31,23.338-26.69,58.747-39.23,90.226-34.83a163.948,163.948,0,0,0,29.677,2.69c79.254,0,144.221-55.89,144.221-126.06,0-33.01-14.223-63.08-37.537-85.67-17.451-17.86-28.352-43.11-28.352-71.13a102.462,102.462,0,0,1,20.355-61.83c20.143-22.04,32.091-49.45,32.091-79.17,0-72.72-71.474-131.66-159.641-131.66a185.393,185.393,0,0,0-80.453,17.93c-38.269,16.48-86.5,26.32-138.936,26.32-79.853,0-149.991-22.8-189.965-57.18h-0.013c-31.733-26.11-74.95-42.18-122.583-42.18-65.035,0-121.841,29.96-152.416,74.52-9.135,11.42-36.209,40.81-67.362,32.65v791.68Z" transform="translate(0 -2421.34)"/>
</svg>
